<?xml version="1.0" encoding="UTF-8" standalone="no"?>
<!-- Created with Inkscape (http://www.inkscape.org/) -->

<svg
   xmlns:dc="http://purl.org/dc/elements/1.1/"
   xmlns:cc="http://creativecommons.org/ns#"
   xmlns:rdf="http://www.w3.org/1999/02/22-rdf-syntax-ns#"
   xmlns:svg="http://www.w3.org/2000/svg"
   xmlns="http://www.w3.org/2000/svg"
   xmlns:sodipodi="http://sodipodi.sourceforge.net/DTD/sodipodi-0.dtd"
   xmlns:inkscape="http://www.inkscape.org/namespaces/inkscape"
   width="256px"
   height="256px"
   viewBox="0 0 256 256"
   version="1.1"
   id="SVGRoot"
   inkscape:version="0.92+devel unknown"
   sodipodi:docname="icon.svg">
  <sodipodi:namedview
     id="base"
     pagecolor="#ffffff"
     bordercolor="#666666"
     borderopacity="1.0"
     inkscape:pageopacity="0.0"
     inkscape:pageshadow="2"
     inkscape:zoom="2.8284271"
     inkscape:cx="105.35642"
     inkscape:cy="133.47657"
     inkscape:document-units="px"
     inkscape:current-layer="layer1"
     inkscape:document-rotation="0"
     showgrid="false"
     inkscape:window-width="1366"
     inkscape:window-height="704"
     inkscape:window-x="0"
     inkscape:window-y="0"
     inkscape:window-maximized="1"
     inkscape:grid-bbox="true" />
  <defs
     id="defs3486" />
  <metadata
     id="metadata3489">
    <rdf:RDF>
      <cc:Work
         rdf:about="">
        <dc:format>image/svg+xml</dc:format>
        <dc:type
           rdf:resource="http://purl.org/dc/dcmitype/StillImage" />
        <dc:title></dc:title>
      </cc:Work>
    </rdf:RDF>
  </metadata>
  <g
     id="layer1"
     inkscape:groupmode="layer"
     inkscape:label="Layer 1">
    <ellipse
       style="fill:#000000;stroke:#000000;stroke-width:0"
       id="path3504"
       cx="128.13274"
       cy="123.32494"
       rx="123.69119"
       ry="99.054337" />
    <g
       aria-label="Universal
     Text
          Encoding as
                Meaning"
       transform="matrix(1.0725592,0,0,1.312324,-8.7551219,-20.51604)"
       style="font-style:normal;font-weight:normal;font-size:13.33333302px;line-height:1.25;font-family:sans-serif;letter-spacing:0px;word-spacing:0px;fill:#d45500;fill-opacity:1;stroke:none"
       id="flowRoot3520">
      <path
         d="m 41.889323,61.717448 h 2.114583 v 9.447917 q 0,2.5 0.90625,3.604167 0.90625,1.09375 2.9375,1.09375 2.020834,0 2.927084,-1.09375 0.90625,-1.104167 0.90625,-3.604167 v -9.447917 h 2.114583 v 9.708334 q 0,3.041666 -1.510416,4.59375 -1.5,1.552083 -4.437501,1.552083 -2.947916,0 -4.458333,-1.552083 -1.5,-1.552084 -1.5,-4.59375 z"
         style="font-size:21.33333397px"
         id="path3691" />
      <path
         d="m 62.977864,72.86849 v 4.401042 h -1.197916 v -4.361979 q 0,-1.035156 -0.403646,-1.549479 -0.403646,-0.514323 -1.210938,-0.514323 -0.970052,0 -1.529947,0.618489 -0.559896,0.61849 -0.559896,1.686198 v 4.121094 h -1.204427 v -7.291667 h 1.204427 v 1.132813 q 0.429687,-0.657552 1.009114,-0.983073 0.585938,-0.325521 1.347657,-0.325521 1.25651,0 1.901041,0.78125 0.644531,0.77474 0.644531,2.285156 z"
         style="font-size:13.33333302px"
         id="path3693" />
      <path
         d="m 65.380208,69.977865 h 1.197916 v 7.291667 h -1.197916 z m 0,-2.838541 h 1.197916 v 1.516927 h -1.197916 z"
         style="font-size:13.33333302px"
         id="path3695" />
      <path
         d="m 68.218749,69.977865 h 1.269531 l 2.278646,6.119792 2.278645,-6.119792 h 1.269532 l -2.734375,7.291667 h -1.627604 z"
         style="font-size:13.33333302px"
         id="path3697" />
      <path
         d="m 83.205728,73.324219 v 0.585938 h -5.507813 q 0.07813,1.236979 0.742188,1.888021 0.670573,0.644531 1.861979,0.644531 0.690104,0 1.334635,-0.169271 0.651042,-0.169271 1.289063,-0.507812 v 1.132812 q -0.644531,0.273438 -1.321615,0.416667 -0.677083,0.143229 -1.373698,0.143229 -1.744791,0 -2.766927,-1.015625 -1.015625,-1.015625 -1.015625,-2.747396 0,-1.790364 0.963542,-2.838541 0.970052,-1.054688 2.610677,-1.054688 1.471354,0 2.324219,0.950521 0.859375,0.94401 0.859375,2.571614 z m -1.197917,-0.351562 q -0.01302,-0.983073 -0.553385,-1.56901 -0.533854,-0.585938 -1.419271,-0.585938 -1.002604,0 -1.608073,0.566406 -0.598958,0.566407 -0.690104,1.595052 z"
         style="font-size:13.33333302px"
         id="path3699" />
      <path
         d="m 89.397134,71.097657 q -0.201823,-0.117188 -0.442708,-0.169271 -0.234375,-0.05859 -0.520834,-0.05859 -1.015625,0 -1.5625,0.664063 -0.540364,0.657552 -0.540364,1.894531 v 3.841146 h -1.204427 v -7.291667 h 1.204427 v 1.132813 q 0.377604,-0.664063 0.983073,-0.983073 0.605468,-0.325521 1.471354,-0.325521 0.123698,0 0.273437,0.01953 0.14974,0.01302 0.332032,0.04557 z"
         style="font-size:13.33333302px"
         id="path3701" />
      <path
         d="m 95.315104,70.192709 v 1.132813 q -0.507812,-0.260417 -1.054687,-0.390625 -0.546875,-0.130209 -1.132813,-0.130209 -0.891927,0 -1.341146,0.273438 -0.442708,0.273437 -0.442708,0.820312 0,0.416667 0.31901,0.657552 0.319011,0.234375 1.282552,0.449219 l 0.410157,0.09115 q 1.276041,0.273437 1.809895,0.774739 0.540365,0.494792 0.540365,1.386719 0,1.015625 -0.807292,1.608073 -0.800781,0.592448 -2.207031,0.592448 -0.585937,0 -1.223958,-0.117188 -0.631511,-0.110677 -1.334636,-0.338541 v -1.236979 q 0.664063,0.345052 1.308594,0.520833 0.644531,0.169271 1.276042,0.169271 0.846354,0 1.302083,-0.286459 0.455729,-0.292968 0.455729,-0.820312 0,-0.488281 -0.332031,-0.748698 -0.325521,-0.260417 -1.438802,-0.501302 l -0.416667,-0.09766 q -1.113281,-0.234375 -1.608073,-0.716146 -0.494791,-0.488281 -0.494791,-1.334635 0,-1.028646 0.729166,-1.588542 0.729167,-0.559896 2.070313,-0.559896 0.664062,0 1.25,0.09766 0.585937,0.09766 1.080729,0.292969 z"
         style="font-size:13.33333302px"
         id="path3703" />
      <path
         d="m 100.93359,73.604167 q -1.451819,0 -2.011715,0.332032 -0.559896,0.332031 -0.559896,1.132812 0,0.638021 0.416667,1.015625 0.423177,0.371094 1.145833,0.371094 0.996091,0 1.595051,-0.703125 0.60547,-0.709636 0.60547,-1.881511 v -0.266927 z m 2.38933,-0.494791 v 4.160156 H 102.125 v -1.106771 q -0.41016,0.664062 -1.02214,0.983073 -0.61197,0.3125 -1.497391,0.3125 -1.119792,0 -1.783854,-0.625 -0.657553,-0.63151 -0.657553,-1.686198 0,-1.230469 0.820313,-1.855469 0.826823,-0.625 2.460935,-0.625 H 102.125 V 72.54948 q 0,-0.826823 -0.54688,-1.276042 -0.54036,-0.455729 -1.52343,-0.455729 -0.625003,0 -1.21745,0.14974 -0.592448,0.149739 -1.139323,0.449218 v -1.10677 q 0.657552,-0.253907 1.276041,-0.377605 0.61849,-0.130208 1.204432,-0.130208 1.58203,0 2.36328,0.820313 0.78125,0.820312 0.78125,2.486979 z"
         style="font-size:13.33333302px"
         id="path3705" />
      <path
         d="m 105.79687,67.139324 h 1.19792 v 10.130208 h -1.19792 z"
         style="font-size:13.33333302px"
         id="path3707" />
      <path
         d="m 73.930992,88.38412 h 13.156251 v 1.770833 H 81.566409 V 103.9362 H 79.451826 V 90.154953 h -5.520834 z"
         style="font-size:21.33333397px"
         id="path3709" />
      <path
         d="m 94.528646,99.990891 v 0.585939 h -5.507813 q 0.07813,1.23698 0.742188,1.88802 0.670573,0.64453 1.861979,0.64453 0.690104,0 1.334635,-0.16927 0.651042,-0.16927 1.289063,-0.50781 v 1.13281 q -0.644531,0.27344 -1.321615,0.41667 -0.677083,0.14323 -1.373698,0.14323 -1.744791,0 -2.766927,-1.01563 -1.015625,-1.01562 -1.015625,-2.7474 0,-1.79036 0.963542,-2.838537 0.970052,-1.054687 2.610677,-1.054687 1.471354,0 2.324219,0.950521 0.859375,0.94401 0.859375,2.571614 z m -1.197917,-0.351562 q -0.01302,-0.983073 -0.553385,-1.569011 -0.533855,-0.585937 -1.419271,-0.585937 -1.002604,0 -1.608073,0.566406 -0.598958,0.566406 -0.690104,1.595052 z"
         style="font-size:13.33333302px"
         id="path3711" />
      <path
         d="m 102.32161,96.644537 -2.636714,3.548173 2.773434,3.74349 h -1.41276 l -2.122393,-2.86458 -2.122396,2.86458 h -1.41276 l 2.832031,-3.8151 -2.591146,-3.476563 h 1.412761 l 1.933593,2.597656 1.93359,-2.597656 z"
         style="font-size:13.33333302px"
         id="path3713" />
      <path
         d="m 105.33594,94.574225 v 2.070312 h 2.46745 v 0.93099 h -2.46745 v 3.958333 q 0,0.89193 0.24088,1.14583 0.2474,0.25391 0.9961,0.25391 h 1.23047 v 1.0026 h -1.23047 q -1.38672,0 -1.91407,-0.51432 -0.52734,-0.52083 -0.52734,-1.88802 v -3.958333 h -0.87891 v -0.93099 h 0.87891 v -2.070312 z"
         style="font-size:13.33333302px"
         id="path3715" />
      <path
         d="m 110.04558,115.05079 h 9.83333 v 1.77083 h -7.72917 v 4.60417 h 7.40626 v 1.77084 h -7.40626 v 5.63541 h 7.91667 v 1.77084 h -10.02083 z"
         style="font-size:21.33333397px"
         id="path3717" />
      <path
         d="m 128.76954,126.20183 v 4.40105 h -1.19792 v -4.36198 q 0,-1.03516 -0.40365,-1.54948 -0.40364,-0.51433 -1.21093,-0.51433 -0.97006,0 -1.52995,0.61849 -0.5599,0.61849 -0.5599,1.6862 v 4.1211 h -1.20442 v -7.29167 h 1.20442 v 1.13281 q 0.42969,-0.65755 1.00912,-0.98307 0.58593,-0.32552 1.34765,-0.32552 1.25651,0 1.90104,0.78125 0.64454,0.77474 0.64454,2.28515 z"
         style="font-size:13.33333302px"
         id="path3719" />
      <path
         d="m 136.41927,123.59116 v 1.11979 q -0.50781,-0.27995 -1.02213,-0.41667 -0.50781,-0.14323 -1.02865,-0.14323 -1.16536,0 -1.80989,0.74219 -0.64454,0.73568 -0.64454,2.07031 0,1.33464 0.64454,2.07683 0.64453,0.73567 1.80989,0.73567 0.52084,0 1.02865,-0.13672 0.51432,-0.14323 1.02213,-0.42317 v 1.10677 q -0.5013,0.23437 -1.04166,0.35156 -0.53386,0.11719 -1.13933,0.11719 -1.64713,0 -2.61718,-1.03516 -0.97006,-1.03516 -0.97006,-2.79297 0,-1.78385 0.97657,-2.80599 0.98307,-1.02213 2.6888,-1.02213 0.55338,0 1.08073,0.11719 0.52734,0.11067 1.02213,0.33854 z"
         style="font-size:13.33333302px"
         id="path3721" />
      <path
         d="m 141.34115,124.15105 q -0.96354,0 -1.52344,0.75521 -0.5599,0.7487 -0.5599,2.05729 0,1.3086 0.55339,2.0638 0.5599,0.7487 1.52995,0.7487 0.95703,0 1.51693,-0.75521 0.55989,-0.7552 0.55989,-2.05729 0,-1.29557 -0.55989,-2.05078 -0.5599,-0.76172 -1.51693,-0.76172 z m 0,-1.01562 q 1.5625,0 2.45443,1.01562 0.89192,1.01563 0.89192,2.8125 0,1.79037 -0.89192,2.8125 -0.89193,1.01563 -2.45443,1.01563 -1.56901,0 -2.46094,-1.01563 -0.88542,-1.02213 -0.88542,-2.8125 0,-1.79687 0.88542,-2.8125 0.89193,-1.01562 2.46094,-1.01562 z"
         style="font-size:13.33333302px"
         id="path3723" />
      <path
         d="m 151.46484,124.41798 v -3.94531 h 1.19792 v 10.13021 h -1.19792 v -1.09375 q -0.3776,0.65104 -0.95703,0.97005 -0.57291,0.3125 -1.38021,0.3125 -1.32161,0 -2.15494,-1.05469 -0.82683,-1.05469 -0.82683,-2.77344 0,-1.71875 0.82683,-2.77343 0.83333,-1.05469 2.15494,-1.05469 0.8073,0 1.38021,0.31901 0.57943,0.3125 0.95703,0.96354 z m -4.08203,2.54557 q 0,1.32162 0.54037,2.07683 0.54687,0.74869 1.49739,0.74869 0.95052,0 1.4974,-0.74869 0.54687,-0.75521 0.54687,-2.07683 0,-1.32161 -0.54687,-2.07031 -0.54688,-0.75521 -1.4974,-0.75521 -0.95052,0 -1.49739,0.75521 -0.54037,0.7487 -0.54037,2.07031 z"
         style="font-size:13.33333302px"
         id="path3725" />
      <path
         d="m 155.13021,123.31121 h 1.19792 v 7.29167 h -1.19792 z m 0,-2.83854 h 1.19792 v 1.51692 h -1.19792 z"
         style="font-size:13.33333302px"
         id="path3727" />
      <path
         d="m 164.88933,126.20183 v 4.40105 h -1.19792 v -4.36198 q 0,-1.03516 -0.40365,-1.54948 -0.40364,-0.51433 -1.21093,-0.51433 -0.97006,0 -1.52995,0.61849 -0.5599,0.61849 -0.5599,1.6862 v 4.1211 h -1.20443 v -7.29167 h 1.20443 v 1.13281 q 0.42969,-0.65755 1.00912,-0.98307 0.58593,-0.32552 1.34765,-0.32552 1.25651,0 1.90104,0.78125 0.64454,0.77474 0.64454,2.28515 z"
         style="font-size:13.33333302px"
         id="path3729" />
      <path
         d="m 172.08984,126.87241 q 0,-1.30209 -0.54036,-2.01823 -0.53386,-0.71615 -1.50391,-0.71615 -0.96354,0 -1.5039,0.71615 -0.53386,0.71614 -0.53386,2.01823 0,1.29557 0.53386,2.01172 0.54036,0.71614 1.5039,0.71614 0.97005,0 1.50391,-0.71614 0.54036,-0.71615 0.54036,-2.01172 z m 1.19792,2.82552 q 0,1.86198 -0.82682,2.76692 -0.82683,0.91146 -2.53255,0.91146 -0.63152,0 -1.19141,-0.0976 -0.5599,-0.0911 -1.08724,-0.28646 v -1.16537 q 0.52734,0.28646 1.04167,0.42318 0.51432,0.13672 1.04817,0.13672 1.17839,0 1.76433,-0.61849 0.58593,-0.61198 0.58593,-1.85547 v -0.59245 q -0.37109,0.64453 -0.95052,0.96354 -0.57942,0.31902 -1.38672,0.31902 -1.34114,0 -2.16145,-1.02214 -0.82032,-1.02214 -0.82032,-2.70833 0,-1.69271 0.82032,-2.71485 0.82031,-1.02213 2.16145,-1.02213 0.8073,0 1.38672,0.31901 0.57943,0.31901 0.95052,0.96354 v -1.10677 h 1.19792 z"
         style="font-size:13.33333302px"
         id="path3731" />
      <path
         d="m 183.3138,126.93751 q -1.45183,0 -2.01172,0.33203 -0.5599,0.33203 -0.5599,1.13281 0,0.63803 0.41667,1.01563 0.42318,0.37109 1.14583,0.37109 0.9961,0 1.59505,-0.70312 0.60547,-0.70964 0.60547,-1.88151 v -0.26693 z m 2.38932,-0.49479 v 4.16016 h -1.19792 v -1.10678 q -0.41015,0.66407 -1.02213,0.98308 -0.61198,0.3125 -1.4974,0.3125 -1.11979,0 -1.78385,-0.625 -0.65755,-0.63151 -0.65755,-1.6862 0,-1.23047 0.82031,-1.85547 0.82682,-0.625 2.46094,-0.625 h 1.67968 v -0.11719 q 0,-0.82682 -0.54687,-1.27604 -0.54037,-0.45573 -1.52344,-0.45573 -0.625,0 -1.21745,0.14974 -0.59245,0.14974 -1.13932,0.44922 v -1.10677 q 0.65755,-0.25391 1.27604,-0.3776 0.61849,-0.13021 1.20443,-0.13021 1.58203,0 2.36328,0.82031 0.78125,0.82031 0.78125,2.48698 z"
         style="font-size:13.33333302px"
         id="path3733" />
      <path
         d="m 192.82553,123.52605 v 1.13282 q -0.50782,-0.26042 -1.05469,-0.39063 -0.54688,-0.13021 -1.13281,-0.13021 -0.89193,0 -1.34115,0.27344 -0.44271,0.27344 -0.44271,0.82031 0,0.41667 0.31901,0.65755 0.31901,0.23438 1.28255,0.44922 l 0.41016,0.0911 q 1.27604,0.27344 1.8099,0.77474 0.54036,0.49479 0.54036,1.38672 0,1.01562 -0.80729,1.60807 -0.80078,0.59245 -2.20703,0.59245 -0.58594,0 -1.22396,-0.11719 -0.63151,-0.11068 -1.33464,-0.33854 v -1.23698 q 0.66407,0.34505 1.3086,0.52083 0.64453,0.16927 1.27604,0.16927 0.84635,0 1.30208,-0.28646 0.45573,-0.29296 0.45573,-0.82031 0,-0.48828 -0.33203,-0.7487 -0.32552,-0.26041 -1.4388,-0.5013 l -0.41667,-0.0977 q -1.11328,-0.23438 -1.60807,-0.71615 -0.49479,-0.48828 -0.49479,-1.33463 0,-1.02865 0.72916,-1.58855 0.72917,-0.55989 2.07032,-0.55989 0.66406,0 1.25,0.0977 0.58593,0.0977 1.08073,0.29297 z"
         style="font-size:13.33333302px"
         id="path3735" />
      <path
         d="m 150.79558,141.71746 h 3.13541 l 3.96875,10.58334 3.98959,-10.58334 h 3.13542 v 15.55209 h -2.05209 V 143.6133 l -4.01042,10.66666 h -2.11458 l -4.01042,-10.66666 v 13.65625 h -2.04166 z"
         style="font-size:21.33333397px"
         id="path3737" />
      <path
         d="m 174.61199,153.32423 v 0.58594 h -5.50781 q 0.0781,1.23698 0.74218,1.88802 0.67058,0.64453 1.86198,0.64453 0.69011,0 1.33464,-0.16927 0.65104,-0.16927 1.28906,-0.50781 v 1.13281 q -0.64453,0.27344 -1.32161,0.41667 -0.67709,0.14323 -1.3737,0.14323 -1.74479,0 -2.76693,-1.01563 -1.01562,-1.01562 -1.01562,-2.74739 0,-1.79037 0.96354,-2.83854 0.97005,-1.05469 2.61068,-1.05469 1.47135,0 2.32421,0.95052 0.85938,0.94401 0.85938,2.57161 z m -1.19792,-0.35156 q -0.013,-0.98307 -0.55338,-1.56901 -0.53386,-0.58594 -1.41927,-0.58594 -1.00261,0 -1.60808,0.56641 -0.59895,0.56641 -0.6901,1.59505 z"
         style="font-size:13.33333302px"
         id="path3739" />
      <path
         d="m 179.89194,153.60418 q -1.45183,0 -2.01172,0.33203 -0.5599,0.33204 -0.5599,1.13282 0,0.63802 0.41667,1.01562 0.42318,0.3711 1.14583,0.3711 0.9961,0 1.59505,-0.70313 0.60547,-0.70964 0.60547,-1.88151 v -0.26693 z m 2.38932,-0.49479 v 4.16016 h -1.19792 v -1.10677 q -0.41015,0.66406 -1.02213,0.98307 -0.61198,0.3125 -1.4974,0.3125 -1.11979,0 -1.78385,-0.625 -0.65755,-0.63151 -0.65755,-1.6862 0,-1.23047 0.82031,-1.85547 0.82682,-0.625 2.46094,-0.625 h 1.67968 v -0.11718 q 0,-0.82683 -0.54687,-1.27605 -0.54037,-0.45573 -1.52344,-0.45573 -0.625,0 -1.21745,0.14974 -0.59244,0.14974 -1.13932,0.44922 v -1.10677 q 0.65755,-0.2539 1.27604,-0.3776 0.61849,-0.13021 1.20443,-0.13021 1.58203,0 2.36328,0.82031 0.78125,0.82031 0.78125,2.48698 z"
         style="font-size:13.33333302px"
         id="path3741" />
      <path
         d="m 190.81641,152.86851 v 4.40104 h -1.19792 v -4.36198 q 0,-1.03516 -0.40364,-1.54948 -0.40365,-0.51432 -1.21094,-0.51432 -0.97005,0 -1.52995,0.61849 -0.55989,0.61849 -0.55989,1.68619 v 4.1211 h -1.20443 v -7.29167 h 1.20443 v 1.13281 q 0.42969,-0.65755 1.00911,-0.98307 0.58594,-0.32552 1.34766,-0.32552 1.25651,0 1.90104,0.78125 0.64453,0.77474 0.64453,2.28516 z"
         style="font-size:13.33333302px"
         id="path3743" />
      <path
         d="m 193.21876,149.97788 h 1.19792 v 7.29167 h -1.19792 z m 0,-2.83854 h 1.19792 v 1.51693 h -1.19792 z"
         style="font-size:13.33333302px"
         id="path3745" />
      <path
         d="m 202.97786,152.86851 v 4.40104 h -1.19791 v -4.36198 q 0,-1.03516 -0.40365,-1.54948 -0.40364,-0.51432 -1.21094,-0.51432 -0.97005,0 -1.52994,0.61849 -0.5599,0.61849 -0.5599,1.68619 v 4.1211 h -1.20443 v -7.29167 h 1.20443 v 1.13281 q 0.42969,-0.65755 1.00912,-0.98307 0.58593,-0.32552 1.34765,-0.32552 1.25651,0 1.90104,0.78125 0.64453,0.77474 0.64453,2.28516 z"
         style="font-size:13.33333302px"
         id="path3747" />
      <path
         d="m 210.17839,153.53908 q 0,-1.30208 -0.54036,-2.01823 -0.53386,-0.71615 -1.50391,-0.71615 -0.96354,0 -1.50391,0.71615 -0.53385,0.71615 -0.53385,2.01823 0,1.29557 0.53385,2.01172 0.54037,0.71614 1.50391,0.71614 0.97005,0 1.50391,-0.71614 0.54036,-0.71615 0.54036,-2.01172 z m 1.19792,2.82552 q 0,1.86198 -0.82683,2.76693 -0.82682,0.91145 -2.53255,0.91145 -0.63151,0 -1.1914,-0.0976 -0.5599,-0.0911 -1.08724,-0.28646 v -1.16536 q 0.52734,0.28645 1.04166,0.42317 0.51433,0.13672 1.04818,0.13672 1.17839,0 1.76432,-0.61849 0.58594,-0.61198 0.58594,-1.85547 V 155.987 q -0.37109,0.64453 -0.95052,0.96354 -0.57943,0.31901 -1.38672,0.31901 -1.34114,0 -2.16146,-1.02214 -0.82031,-1.02213 -0.82031,-2.70833 0,-1.69271 0.82031,-2.71485 0.82032,-1.02213 2.16146,-1.02213 0.80729,0 1.38672,0.31901 0.57943,0.31901 0.95052,0.96354 v -1.10677 h 1.19792 z"
         style="font-size:13.33333302px"
         id="path3749" />
    </g>
    <circle
       style="fill:#ffd5d5;stroke:#000000;stroke-width:0"
       id="path3550"
       cx="131.0166"
       cy="52.405273"
       r="3.0732422" />
    <circle
       style="fill:#ffd5d5;stroke:#000000;stroke-width:0"
       id="path3552"
       cx="185.32715"
       cy="93.790039"
       r="6.4873047" />
    <circle
       style="fill:#ffd5d5;stroke:#000000;stroke-width:0"
       id="path3554"
       cx="40.046875"
       cy="134.01562"
       r="5.8457031" />
    <circle
       style="fill:#ffd5d5;stroke:#000000;stroke-width:0"
       id="path3556"
       cx="111.88672"
       cy="180.41016"
       r="5.3730469" />
    <circle
       style="fill:#ffff00;stroke:#000000;stroke-width:0"
       id="path3558"
       cx="38.787109"
       cy="165.94727"
       r="5.671875" />
    <circle
       style="fill:#ffff00;stroke:#000000;stroke-width:0"
       id="path3560"
       cx="131.06738"
       cy="87.399414"
       r="5.1044922" />
    <circle
       style="fill:#ffff00;stroke:#000000;stroke-width:0"
       id="path3562"
       cx="228.19043"
       cy="115.98535"
       r="5.0498047" />
    <circle
       style="fill:#ffff00;stroke:#000000;stroke-width:0"
       id="path3564"
       cx="106.16699"
       cy="198.36816"
       r="4.7353516" />
    <circle
       style="fill:#0000ff;stroke:#000000;stroke-width:0"
       id="path3566"
       cx="70.269531"
       cy="163.28711"
       r="5.7050781" />
    <circle
       style="fill:#0000ff;stroke:#000000;stroke-width:0"
       id="path3568"
       cx="37.898438"
       cy="104.28516"
       r="6.8085938" />
    <circle
       style="fill:#0000ff;stroke:#000000;stroke-width:0"
       id="path3570"
       cx="166.91309"
       cy="63.049805"
       r="5.1005859" />
    <circle
       style="fill:#0000ff;stroke:#000000;stroke-width:0"
       id="path3572"
       cx="214.37012"
       cy="79.229492"
       r="5.6572266" />
  </g>
</svg>
