<?xml version="1.0" encoding="UTF-8" standalone="no"?>
<!-- Created with Inkscape (http://www.inkscape.org/) -->

<svg
   xmlns:dc="http://purl.org/dc/elements/1.1/"
   xmlns:cc="http://creativecommons.org/ns#"
   xmlns:rdf="http://www.w3.org/1999/02/22-rdf-syntax-ns#"
   xmlns:svg="http://www.w3.org/2000/svg"
   xmlns="http://www.w3.org/2000/svg"
   xmlns:sodipodi="http://sodipodi.sourceforge.net/DTD/sodipodi-0.dtd"
   xmlns:inkscape="http://www.inkscape.org/namespaces/inkscape"
   width="16px"
   height="16px"
   viewBox="0 0 16 16"
   version="1.1"
   id="SVGRoot"
   inkscape:version="0.92+devel unknown"
   sodipodi:docname="symbol.svg">
  <sodipodi:namedview
     id="base"
     pagecolor="#ffffff"
     bordercolor="#666666"
     borderopacity="1.0"
     inkscape:pageopacity="0.0"
     inkscape:pageshadow="2"
     inkscape:zoom="32"
     inkscape:cx="10.156553"
     inkscape:cy="9.6705694"
     inkscape:document-units="px"
     inkscape:current-layer="layer1"
     inkscape:document-rotation="0"
     showgrid="false"
     inkscape:window-width="1366"
     inkscape:window-height="704"
     inkscape:window-x="0"
     inkscape:window-y="0"
     inkscape:window-maximized="1"
     inkscape:grid-bbox="true" />
  <defs
     id="defs114" />
  <metadata
     id="metadata117">
    <rdf:RDF>
      <cc:Work
         rdf:about="">
        <dc:format>image/svg+xml</dc:format>
        <dc:type
           rdf:resource="http://purl.org/dc/dcmitype/StillImage" />
        <dc:title />
      </cc:Work>
    </rdf:RDF>
  </metadata>
  <g
     id="layer1"
     inkscape:groupmode="layer"
     inkscape:label="Layer 1">
    <path
       style="fill:#cccccc;fill-opacity:1;stroke:#000000;stroke-width:0"
       d="m 7.4808088,14.152149 c -1.239753,-0.07769 -2.490957,-0.406104 -3.546875,-0.930968 -1.738041,-0.863926 -2.96550699,-2.193919 -3.49989696,-3.7922345 -0.186904,-0.5590137 -0.22715,-0.8869512 -0.209979,-1.7109934 0.01275,-0.61197 0.02321,-0.7212065 0.09521,-0.9943084 0.158828,-0.6024366 0.444277,-1.2626285 0.75075696,-1.7363653 0.292843,-0.4526575 0.995767,-1.1975699 1.532686,-1.62424 0.432807,-0.343936 1.337355,-0.8515103 2.033377,-1.1410015 0.53856,-0.2239991 1.346279,-0.4262364 2.157217,-0.5401258 0.56438,-0.079263 1.888708,-0.079081 2.46875,3.379e-4 2.3373972,0.3200361 4.3265682,1.4034083 5.5192342,3.0059695 0.746164,1.0026052 1.103013,2.0436474 1.097448,3.2016086 -0.01146,2.3851919 -1.713653,4.5728129 -4.373076,5.6201859 -0.730512,0.287701 -1.5360666,0.488385 -2.3393542,0.582793 -0.409092,0.04808 -1.341434,0.0809 -1.685502,0.05934 z m -0.704412,-1.18353 c 0.127538,-0.06595 0.208194,-0.284671 0.159447,-0.432378 -0.06856,-0.207731 -0.374559,-0.237855 -0.540973,-0.05326 -0.125578,0.1393 -0.114648,0.253131 0.03906,0.406842 0.134933,0.134933 0.203423,0.150691 0.342463,0.07879 z m 2.887496,-0.4506 c 0.112185,-0.07396 0.207066,-0.215564 0.207335,-0.30943 5.31e-4,-0.185448 -0.184822,-0.381807 -0.380661,-0.403265 -0.174111,-0.01908 -0.331848,0.08129 -0.397071,0.25266 -0.126946,0.333539 0.273002,0.656104 0.570397,0.460035 z m -5.133276,-0.270333 c 0.182344,-0.09429 0.266485,-0.340684 0.17354,-0.508178 -0.139735,-0.251812 -0.572799,-0.256223 -0.676078,-0.0069 -0.02325,0.05613 -0.03281,0.156515 -0.0231,0.242647 0.03034,0.269152 0.280869,0.398992 0.525637,0.272417 z m 7.5323292,-0.219309 c 0.296301,-0.153223 0.172614,-0.638549 -0.162735,-0.638549 -0.147371,0 -0.32631,0.134245 -0.247598,0.185755 0.04095,0.0268 0.03934,0.04449 -0.01291,0.141522 -0.05053,0.09383 -0.05366,0.122211 -0.02036,0.184438 0.04151,0.07757 0.1979,0.170417 0.292707,0.173786 0.03093,0.0011 0.09884,-0.02003 0.150899,-0.04695 z m -4.8762772,-0.2098 c 0.135596,-0.09138 0.190903,-0.198363 0.171458,-0.331668 -0.02782,-0.19073 -0.248494,-0.361909 -0.421854,-0.327236 -0.121931,0.02439 -0.314839,0.233429 -0.314839,0.341172 0,0.187318 0.186103,0.388983 0.358968,0.388983 0.0553,0 0.148117,-0.03206 0.206267,-0.07125 z M 11.334648,10.67889 c 0.106955,-0.09155 0.132177,-0.269732 0.164772,-1.1640615 0.01723,-0.4726566 0.03971,-1.0632816 0.04995,-1.3125004 l 0.01863,-0.453125 0.271918,0.830086 c 0.149555,0.4565475 0.319781,0.9206104 0.378279,1.0312504 0.09108,0.172267 0.122386,0.205125 0.217921,0.228738 0.230772,0.05704 0.422015,-0.121229 0.599498,-0.5588244 0.04183,-0.103125 0.159105,-0.4265625 0.26062,-0.71875 l 0.184572,-0.53125 0.02002,0.9375 c 0.03519,1.6480609 0.0595,1.7656249 0.365088,1.7656249 0.13151,0 0.225218,-0.08978 0.262108,-0.251134 0.01887,-0.08253 0.03788,-0.9203655 0.04656,-2.0516965 l 0.01467,-1.9122056 -0.291724,0.018063 c -0.160449,0.00993 -0.331824,0.038323 -0.380834,0.063086 -0.134372,0.067893 -0.283931,0.4223378 -0.633384,1.5010753 -0.168427,0.5199219 -0.315226,0.9453125 -0.326222,0.9453125 -0.01099,0 -0.09328,-0.2425781 -0.182866,-0.5390625 -0.5653,-1.8709684 -0.611253,-1.9605572 -1.005763,-1.9608206 -0.201821,-1.25e-4 -0.254501,0.04032 -0.305043,0.2342581 -0.05168,0.1983175 -0.07894,2.3789744 -0.03828,3.0624998 0.04052,0.6812345 0.04945,0.7371025 0.131928,0.8256315 0.0737,0.07911 0.09571,0.08039 0.177582,0.01031 z M 5.8760728,10.358578 c 0.123647,-0.166154 0.197489,-0.8159875 0.229039,-2.0156249 0.0095,-0.3609375 0.02557,-0.8616131 0.03573,-1.1126125 l 0.01847,-0.4563625 0.485869,-0.021675 c 0.267228,-0.011922 0.512503,-0.035929 0.545054,-0.05335 0.125404,-0.067114 0.16451,-0.3829741 0.05921,-0.4782659 -0.114147,-0.1033016 -0.452907,-0.1242935 -1.360073,-0.084279 -1.398475,0.061686 -1.549197,0.1018347 -1.549197,0.4126694 0,0.082259 0.01116,0.1564565 0.02479,0.1648831 0.01363,0.00843 0.266759,0.025385 0.5625,0.037687 l 0.53771,0.022366 0.0011,0.300095 c 5.88e-4,0.1650525 0.01374,0.9276697 0.02923,1.694705 0.02961,1.4663243 0.04055,1.5678163 0.177709,1.6485433 0.08082,0.04757 0.13554,0.03171 0.20288,-0.05878 z m 4.1359842,0.01563 c 0.103374,-0.05169 0.125,-0.07842 0.125,-0.154499 0,-0.195558 -0.3176232,-0.2609955 -1.2890612,-0.2655725 l -0.382812,-0.0018 4.78e-4,-0.6171879 c 2.5e-4,-0.3394531 0.01192,-0.6352178 0.0259,-0.6572547 0.0171,-0.026951 0.203637,-0.0549 0.569833,-0.08538 0.615244,-0.051209 0.806147,-0.087918 0.9190466,-0.1767259 0.07745,-0.060921 0.1003616,-0.1619009 0.05348,-0.2356772 C 9.9854724,8.1038669 9.7694298,8.0446619 9.3642918,7.9965956 8.4949518,7.8934562 8.4964338,7.8944459 8.4964338,7.4168637 c 0,-0.448604 -0.01897,-0.4379959 0.859375,-0.4806371 0.6835092,-0.033183 0.7968732,-0.082232 0.7968732,-0.3447794 0,-0.096222 -0.01942,-0.1464647 -0.0778,-0.2013091 -0.0997,-0.093666 -0.4126442,-0.1216747 -1.3831362,-0.1237925 l -0.695312,-0.00152 v 2.0961638 2.0961636 l 0.945312,-0.01023 c 0.870978,-0.0094 0.9551416,-0.01514 1.0703112,-0.07273 z M 3.0433718,10.258954 c 0.191758,-0.09946 0.451039,-0.3680435 0.556826,-0.5768035 0.141636,-0.279505 0.156752,-0.459663 0.155637,-1.8548224 -7.12e-4,-0.8927987 -0.01246,-1.3382825 -0.0377,-1.4297709 -0.0687,-0.2490666 -0.265639,-0.2849869 -0.345814,-0.063076 -0.02031,0.056222 -0.04984,0.376441 -0.06562,0.7115972 -0.08095,1.719281 -0.113583,2.0123256 -0.265768,2.3868564 -0.106998,0.263321 -0.210169,0.386106 -0.357845,0.425871 -0.162383,0.04373 -0.329234,-9.22e-4 -0.505296,-0.135208 -0.169742,-0.129467 -0.261555,-0.265832 -0.304478,-0.4522238 -0.0433,-0.18801 -0.0879,-0.9162453 -0.122903,-2.0065456 -0.01799,-0.5603472 -0.04099,-0.8880787 -0.0661,-0.9418665 -0.07822,-0.1675285 -0.300783,-0.2000304 -0.436998,-0.063816 -0.07843,0.078435 -0.09061,0.1185378 -0.111273,0.3666553 -0.01276,0.1532235 -0.0151,0.7077338 -0.0052,1.232245 0.01513,0.8016482 0.02841,1.0024138 0.08331,1.2595416 0.152953,0.716354 0.387993,1.0459782 0.853727,1.1972812 0.0875,0.02842 0.247036,0.03982 0.475436,0.03397 0.298861,-0.0077 0.364163,-0.0194 0.500064,-0.08989 z M 11.858263,6.3930678 c 0.180237,-0.081859 0.263169,-0.1987575 0.263169,-0.3709528 0,-0.1750659 -0.0892,-0.3269294 -0.231778,-0.394585 C 11.438238,5.4133191 11.053306,5.9133528 11.3817,6.2873725 11.535674,6.46274 11.64935,6.4879516 11.858263,6.3930678 Z M 8.3710888,5.9056316 c 0.129896,-0.067172 0.187845,-0.1665175 0.187845,-0.3220357 0,-0.1964078 -0.125952,-0.3187678 -0.328125,-0.3187678 -0.120413,0 -0.161809,0.016376 -0.240617,0.095184 -0.08641,0.086407 -0.09381,0.1094887 -0.08028,0.2503166 0.02667,0.2775062 0.236169,0.4116575 0.461175,0.2953029 z M 13.79459,5.31667 C 13.920732,5.1905278 13.954216,5.0767416 13.902169,4.9510887 13.800764,4.7062768 13.503524,4.6215106 13.311894,4.7827562 c -0.281089,0.236521 -0.12952,0.6352157 0.242351,0.6374904 0.113042,6.906e-4 0.153522,-0.016754 0.240345,-0.1035766 z M 3.7456948,5.2027234 c 0.16112,-0.086229 0.242184,-0.4094706 0.139467,-0.5561204 -0.0666,-0.095079 -0.207429,-0.1630249 -0.337904,-0.1630249 -0.131405,0 -0.289816,0.1222707 -0.352368,0.2719785 -0.05465,0.1307875 -0.0041,0.2693634 0.143442,0.3935431 0.106643,0.089734 0.293845,0.1143769 0.407363,0.053624 z m 2.656532,-0.6875699 c 0.261733,-0.1863708 0.241645,-0.5797972 -0.03832,-0.7504942 -0.266613,-0.1625557 -0.628073,0.020613 -0.670909,0.3399815 -0.02038,0.1519378 0.08098,0.3578443 0.218759,0.4444028 0.130277,0.081846 0.349175,0.06672 0.49047,-0.03389 z M 10.684558,4.3113797 c 0.176191,-0.091112 0.212465,-0.3179542 0.07665,-0.4793565 -0.09496,-0.1128519 -0.225945,-0.1473588 -0.37395,-0.098513 -0.145915,0.048156 -0.20333,0.1387818 -0.20333,0.3209415 0,0.118354 0.01647,0.1671877 0.07671,0.2274217 0.0907,0.090701 0.280091,0.1038831 0.423921,0.029506 z M 8.3948708,3.4928093 c 0.05571,-0.074776 0.04826,-0.2104205 -0.01563,-0.2843037 -0.08476,-0.098021 -0.174189,-0.1099133 -0.268527,-0.035707 -0.110953,0.087275 -0.117894,0.282311 -0.01272,0.3575102 0.08374,0.059875 0.238928,0.040273 0.296875,-0.0375 z"
       id="path29"
       inkscape:connector-curvature="0" />
  </g>
</svg>
