<?xml version="1.0" encoding="UTF-8" standalone="no"?>
<svg
   xmlns:dc="http://purl.org/dc/elements/1.1/"
   xmlns:cc="http://creativecommons.org/ns#"
   xmlns:rdf="http://www.w3.org/1999/02/22-rdf-syntax-ns#"
   xmlns:svg="http://www.w3.org/2000/svg"
   xmlns="http://www.w3.org/2000/svg"
   xmlns:sodipodi="http://sodipodi.sourceforge.net/DTD/sodipodi-0.dtd"
   xmlns:inkscape="http://www.inkscape.org/namespaces/inkscape"
   width="16px"
   height="16px"
   version="1.1"
   id="svg12"
   sodipodi:docname="symbol2.svg"
   inkscape:version="0.92+devel unknown">
  <defs
     id="defs16" />
  <sodipodi:namedview
     pagecolor="#ffffff"
     bordercolor="#666666"
     inkscape:document-rotation="0"
     borderopacity="1"
     objecttolerance="10"
     gridtolerance="10"
     guidetolerance="10"
     inkscape:pageopacity="0"
     inkscape:pageshadow="2"
     inkscape:window-width="1366"
     inkscape:window-height="704"
     id="namedview14"
     showgrid="false"
     inkscape:zoom="21.831922"
     inkscape:cx="7.3679724"
     inkscape:cy="7.3545566"
     inkscape:window-x="0"
     inkscape:window-y="0"
     inkscape:window-maximized="1"
     inkscape:current-layer="svg12" />
  <metadata
     id="metadata2">
    <rdf:RDF>
      <cc:Work
         rdf:about="">
        <dc:format>image/svg+xml</dc:format>
        <dc:type
           rdf:resource="http://purl.org/dc/dcmitype/StillImage" />
        <dc:title />
      </cc:Work>
    </rdf:RDF>
  </metadata>
  <path
     d="M 6.8698388,14.030615 C 4.0238328,13.63915 1.6786138,12.117335 0.70016382,10.027109 0.27300182,9.1145775 0.15011082,8.4063957 0.23449982,7.3436253 0.29156982,6.6248984 0.39898982,6.25433 0.77306382,5.4857346 1.5619798,3.8647772 3.4607488,2.4311326 5.5278228,1.8957044 c 1.004295,-0.2601393 1.289404,-0.293254 2.505603,-0.2910199 1.0376745,0.00191 1.1687915,0.011517 1.7405705,0.1275888 1.7093827,0.3470056 3.1364317,1.0488143 4.2118217,2.071332 1.241716,1.180666 1.832694,2.4600661 1.837574,3.9781372 0.0047,1.4501449 -0.510884,2.6930585 -1.583459,3.8175195 -1.202865,1.261052 -2.727849,2.030145 -4.6955967,2.368124 -0.51539,0.08852 -2.2009065,0.128372 -2.6744975,0.06323 z m -0.04815,-1.162493 c 0.318016,-0.318016 -0.05554,-0.757066 -0.408145,-0.479705 -0.169617,0.133421 -0.16162,0.320527 0.02024,0.473551 0.175272,0.147483 0.245463,0.148596 0.387905,0.0062 z m 2.9100265,-0.479506 c 0.144536,-0.144535 0.162563,-0.228306 0.08272,-0.384421 -0.141124,-0.275954 -0.450108,-0.342058 -0.652558,-0.139608 -0.246806,0.246807 -0.07287,0.657919 0.278351,0.657919 0.113109,0 0.195386,-0.03779 0.291482,-0.13389 z M 4.6016128,12.113789 c 0.165852,-0.165851 0.176959,-0.359333 0.02863,-0.498683 -0.219342,-0.206061 -0.556426,-0.155315 -0.639916,0.09634 -0.138282,0.416799 0.305042,0.708593 0.611288,0.402347 z m 7.4982192,-0.166436 c 0.226259,-0.158478 0.07852,-0.615763 -0.198939,-0.615763 -0.163838,0 -0.307021,0.08509 -0.276598,0.164371 0.01387,0.03616 0.0018,0.117226 -0.02691,0.180158 -0.04472,0.09816 -0.0369,0.130634 0.05502,0.22848 0.122784,0.130697 0.297971,0.147437 0.447428,0.04275 z M 7.2251588,11.723115 c 0.159863,-0.148157 0.160033,-0.3402 4.58e-4,-0.499791 -0.191984,-0.191984 -0.457195,-0.147028 -0.584458,0.09907 -0.05441,0.10521 -0.05515,0.148686 -0.0046,0.268874 0.110119,0.261895 0.382481,0.322901 0.588633,0.131846 z m 4.1344222,-1.149007 c 0.05927,-0.09047 0.08525,-0.301083 0.117234,-0.9504425 0.0226,-0.4588235 0.05309,-1.0506505 0.06777,-1.3151714 l 0.02668,-0.4809471 0.282754,0.8244808 c 0.318984,0.930126 0.351788,1.0012109 0.509813,1.1047529 0.09626,0.063074 0.134251,0.06542 0.254285,0.0157 0.194863,-0.080715 0.321834,-0.3023674 0.57353,-1.0012042 0.118893,-0.3301092 0.223476,-0.5928923 0.232405,-0.5839632 0.0089,0.00893 0.035,0.498465 0.05794,1.0878575 0.02294,0.5893929 0.06579,1.1387352 0.09522,1.2207632 0.08416,0.234545 0.392227,0.260099 0.511449,0.04243 0.0392,-0.07156 0.06025,-0.6665738 0.07412,-2.0947262 l 0.01938,-1.9947689 -0.324567,0.02975 c -0.178512,0.016363 -0.357533,0.057109 -0.397823,0.090547 -0.12499,0.1037228 -0.210747,0.3086168 -0.573348,1.3698449 l -0.351096,1.0275536 -0.0953,-0.2946818 c -0.05242,-0.162075 -0.181456,-0.5726875 -0.28675,-0.9124721 -0.328018,-1.0585069 -0.463829,-1.2837253 -0.77331,-1.2823946 -0.358298,0.00154 -0.369616,0.047365 -0.398967,1.6152503 -0.02854,1.5244032 0.02096,2.3702438 0.146849,2.5093478 0.105154,0.116194 0.14031,0.112021 0.231732,-0.02751 z M 5.8900228,10.229787 c 0.11039,-0.22303 0.167077,-0.7966489 0.218834,-2.2144022 0.02474,-0.6776559 0.0561,-1.2432177 0.06968,-1.2568037 0.01359,-0.013586 0.244118,-0.038708 0.512294,-0.055826 0.54984,-0.035097 0.624256,-0.080071 0.600309,-0.3628008 -0.02053,-0.2424327 -0.128946,-0.2744826 -0.92958,-0.274813 -0.841034,-3.47e-4 -1.668844,0.068912 -1.880457,0.15733 -0.142917,0.059715 -0.157842,0.083414 -0.157842,0.2506334 0,0.2193838 0.0094,0.2230381 0.626051,0.2421312 0.230962,0.00715 0.430564,0.023662 0.44356,0.036689 0.013,0.013027 0.03588,0.5901638 0.05086,1.2825256 0.04111,1.9008373 0.06246,2.1898425 0.16965,2.2970335 0.116126,0.116126 0.180552,0.09244 0.276642,-0.101697 z m 4.1273632,0.08101 c 0.154824,-0.101445 0.156174,-0.192106 0.0043,-0.29159 -0.08969,-0.058766 -0.2968037,-0.088855 -0.8473827,-0.1231038 l -0.728679,-0.045328 v -0.467684 c 0,-0.5591724 0.03141,-0.7439065 0.131417,-0.7729333 0.04109,-0.011926 0.311741,-0.044396 0.601455,-0.072157 C 9.7527873,8.4829679 10.0175,8.3900563 10.039543,8.235779 10.060813,8.0868961 9.9486233,8.0305493 9.4894083,7.9594891 8.4808133,7.8034149 8.4914313,7.8098687 8.4914313,7.3528829 c 0,-0.2991171 0.06889,-0.4177072 0.243745,-0.4196081 0.456885,-0.00497 1.199647,-0.095356 1.2945487,-0.1575376 C 10.19158,6.6696851 10.184437,6.4156914 10.016505,6.3056036 9.9099293,6.2357386 9.7563123,6.2221536 8.9171963,6.2083836 L 7.9417768,6.1923766 v 2.0810261 c 0,1.1445644 0.01546,2.0968343 0.03435,2.1161573 0.01889,0.01932 0.4582115,0.02764 0.9762625,0.01849 0.803487,-0.01419 0.959991,-0.02848 1.0649537,-0.09726 z m -6.9879422,-0.09557 c 0.228747,-0.118289 0.552802,-0.5171129 0.629201,-0.7743766 0.08841,-0.2977067 0.102501,-2.9988143 0.0165,-3.1622081 -0.100941,-0.1917708 -0.191604,-0.2121758 -0.288136,-0.064849 -0.05017,0.076563 -0.08724,0.4170791 -0.1409,1.2939767 -0.04005,0.6545388 -0.101797,1.3304706 -0.137217,1.5020707 C 2.9511158,9.7742159 2.5783778,10.008958 2.1373258,9.6217099 1.8882748,9.4030397 1.8531228,9.2669899 1.8008708,8.3194933 1.6823448,6.170224 1.6889138,6.2394822 1.5972168,6.1724318 c -0.130279,-0.095263 -0.280592,-0.075013 -0.379849,0.051172 -0.126121,0.1603363 -0.155248,0.6662418 -0.105531,1.8329737 0.03578,0.8395922 0.05601,1.0084857 0.159152,1.3283302 0.169515,0.5256834 0.412184,0.7883063 0.830758,0.8990703 0.204538,0.05413 0.771307,0.01212 0.927699,-0.06875 z M 11.976134,6.2508234 C 12.241786,5.9851723 12.097141,5.580506 11.718377,5.529703 c -0.155274,-0.020827 -0.2092,-0.00483 -0.332011,0.098513 -0.118022,0.099308 -0.146627,0.1576421 -0.146627,0.2990101 0,0.4169886 0.446706,0.6132864 0.736395,0.3235973 z M 8.4924373,5.7416362 c 0.130664,-0.2441479 -0.01941,-0.5478473 -0.27072,-0.5478473 -0.2822555,0 -0.4246125,0.279258 -0.2800515,0.5493723 0.103921,0.1941785 0.4465415,0.1932298 0.5507715,-0.00152 z M 13.78397,5.2645777 c 0.232694,-0.2326935 0.06593,-0.6204426 -0.266842,-0.6204426 -0.175939,0 -0.328911,0.1339999 -0.377783,0.3309297 -0.02504,0.1009156 -0.0045,0.1513371 0.107592,0.2633758 0.175603,0.1756031 0.37773,0.1854405 0.537033,0.026137 z M 3.8160888,5.0731006 c 0.118898,-0.1511552 0.126686,-0.431957 0.01478,-0.5328089 -0.209419,-0.1887256 -0.507112,-0.1334316 -0.637328,0.1183785 -0.184834,0.3574299 0.374501,0.7297768 0.622553,0.4144304 z m 2.617703,-0.6544645 c 0.225336,-0.2253353 0.1758,-0.5733885 -0.102054,-0.7170726 -0.358051,-0.1851553 -0.779249,0.1720964 -0.63871,0.541741 0.127765,0.3360467 0.493487,0.4226094 0.740764,0.1753316 z M 10.70681,4.2285702 c 0.157769,-0.1241006 0.161257,-0.3267072 0.0083,-0.4797047 -0.06184,-0.061836 -0.165833,-0.1124292 -0.231104,-0.1124292 -0.163818,0 -0.343534,0.1906074 -0.343534,0.3643539 0,0.2894922 0.322856,0.419335 0.566379,0.22778 z M 8.4057893,3.3698165 c 0.02686,-0.072624 0.009,-0.1306305 -0.067819,-0.2199078 -0.08997,-0.1045992 -0.117992,-0.1139402 -0.203887,-0.067971 -0.05477,0.029311 -0.1132365,0.107706 -0.1299285,0.1742105 -0.06406,0.2552323 0.3100915,0.3611231 0.4016305,0.1136683 z"
     id="path26"
     inkscape:connector-curvature="0" />
</svg>
